<?xml version="1.0" encoding="UTF-8" standalone="no"?>
<svg width="30px" height="30px" viewBox="0 0 30 30" version="1.1" xmlns="http://www.w3.org/2000/svg" xmlns:xlink="http://www.w3.org/1999/xlink" xmlns:sketch="http://www.bohemiancoding.com/sketch/ns">
    <!-- Generator: Sketch 3.0.4 (8053) - http://www.bohemiancoding.com/sketch -->
    <title>clipboard</title>
    <desc>Created with Sketch.</desc>
    <defs></defs>
    <g id="interface" stroke="none" stroke-width="1" fill="none" fill-rule="evenodd" sketch:type="MSPage">
        <g id="clipboard" sketch:type="MSArtboardGroup" fill="#FFFFFF">
            <path d="M25,16.4285714 L25,23.9285714 C25,24.226192 24.8958344,24.4791656 24.6875,24.6875 C24.4791656,24.8958344 24.226192,25 23.9285714,25 L13.2142857,25 C12.9166652,25 12.6636915,24.8958344 12.4553571,24.6875 C12.2470228,24.4791656 12.1428571,24.226192 12.1428571,23.9285714 L12.1428571,22.1428571 L6.07142857,22.1428571 C5.77380804,22.1428571 5.52083437,22.0386915 5.3125,21.8303571 C5.10416563,21.6220228 5,21.3690491 5,21.0714286 L5,6.07142857 C5,5.77380804 5.10416563,5.52083438 5.3125,5.3125 C5.52083437,5.10416562 5.77380804,5 6.07142857,5 L18.2142857,5 C18.5119062,5 18.7648799,5.10416562 18.9732143,5.3125 C19.1815487,5.52083438 19.2857143,5.77380804 19.2857143,6.07142857 L19.2857143,9.73214286 C19.4419651,9.82886953 19.5758923,9.93303516 19.6875,10.0446429 L24.2410714,14.5982143 C24.4494058,14.8065487 24.6279754,15.0892839 24.7767857,15.4464286 C24.925596,15.8035732 25,16.1309509 25,16.4285714 Z M13.5714286,23.5714286 L23.5714286,23.5714286 L23.5714286,16.4285714 L18.9285714,16.4285714 C18.6309509,16.4285714 18.3779772,16.3244058 18.1696429,16.1160714 C17.9613085,15.9077371 17.8571429,15.6547634 17.8571429,15.3571429 L17.8571429,10.7142857 L13.5714286,10.7142857 L13.5714286,23.5714286 Z M16.4285714,7.5 L16.4285714,6.78571429 C16.4285714,6.68898761 16.3932295,6.60528309 16.3225446,6.53459821 C16.2518598,6.46391334 16.1681552,6.42857143 16.0714286,6.42857143 L8.21428571,6.42857143 C8.11755904,6.42857143 8.03385452,6.46391334 7.96316964,6.53459821 C7.89248477,6.60528309 7.85714286,6.68898761 7.85714286,6.78571429 L7.85714286,7.5 C7.85714286,7.59672667 7.89248477,7.68043119 7.96316964,7.75111607 C8.03385452,7.82180095 8.11755904,7.85714286 8.21428571,7.85714286 L16.0714286,7.85714286 C16.1681552,7.85714286 16.2518598,7.82180095 16.3225446,7.75111607 C16.3932295,7.68043119 16.4285714,7.59672667 16.4285714,7.5 Z M19.2857143,15 L22.6227679,15 L19.2857143,11.6629464 L19.2857143,15 Z" sketch:type="MSShapeGroup"></path>
        </g>
    </g>
</svg>